<svg width="37" height="40" viewBox="0 0 37 40" fill="none" xmlns="http://www.w3.org/2000/svg">
<path d="M33.9968 16.081C34.2692 16.4597 34.7556 16.6513 35.233 16.5238C35.8499 16.3591 36.2164 15.7255 36.0517 15.1086C35.887 14.4918 35.2534 14.1252 34.6365 14.29C34.1557 14.4184 33.8283 14.8319 33.7847 15.3L23.4944 18.0619C23.4122 17.8219 23.316 17.5886 23.2053 17.3634L33.4781 11.4267L33.0733 10.726L22.8004 16.6628C22.6593 16.4533 22.5043 16.2541 22.3385 16.0645L30.7261 7.66985L30.1537 7.09792L21.7661 15.4926C21.5764 15.327 21.3771 15.1722 21.1675 15.0313L27.0552 4.8236C27.5242 4.91253 28.0185 4.70427 28.2711 4.26763C28.5908 3.71497 28.402 3.00776 27.8493 2.68806C27.2967 2.36833 26.5894 2.55718 26.2697 3.10984C26.0257 3.53171 26.0787 4.04305 26.3629 4.40396L20.4665 14.6268C20.2413 14.5163 20.0078 14.4204 19.7677 14.3384L21.7651 6.8715L20.9834 6.66241L18.9861 14.1292C18.7413 14.0814 18.4911 14.0491 18.2366 14.0322L18.2316 2.24652C18.6823 2.089 19.0063 1.66148 19.0067 1.15706C19.0072 0.518595 18.4901 0.000536724 17.8516 4.61674e-07C17.2131 -0.000564025 16.6951 0.516591 16.6945 1.15508C16.6941 1.64246 16.9958 2.05883 17.4224 2.22922L17.4274 14.0326C17.1729 14.0497 16.9227 14.0821 16.6779 14.13L14.6748 6.6671L13.8933 6.87686L15.8965 14.34C15.6565 14.4222 15.4231 14.5184 15.1979 14.6291L11.8587 8.85104C12.1359 8.49519 12.1863 7.993 11.9461 7.57886C11.6302 7.03447 10.9329 6.84917 10.3885 7.16501C9.84411 7.48081 9.65882 8.17815 9.97462 8.72257C10.2228 9.15034 10.7064 9.35502 11.1664 9.27046L14.4972 15.034C14.2877 15.1751 14.0886 15.3302 13.899 15.4959L5.56165 7.1656C5.76896 6.73557 5.69574 6.20414 5.33935 5.84713C4.88824 5.39528 4.15627 5.39463 3.7044 5.84574C3.25255 6.29682 3.25193 7.02882 3.70302 7.48067C4.04733 7.8256 4.55503 7.90669 4.97718 7.72557L13.3271 16.0684C13.1614 16.2581 13.0067 16.4574 12.8658 16.6671L6.17189 12.8061L5.76749 13.5071L12.4613 17.368C12.3508 17.5932 12.2548 17.8266 12.1729 18.0666L0.710352 15.0005L0.501266 15.7823L11.9636 18.8484C11.9158 19.0932 11.8836 19.3434 11.8667 19.5978L0 19.6028L0.000338693 20.4121L11.8671 20.4071C11.8842 20.6616 11.9165 20.9118 11.9645 21.1565L5.51883 22.8866C5.24684 22.5267 4.77478 22.348 4.31255 22.4729C3.70496 22.6371 3.3455 23.2627 3.50965 23.8702C3.6738 24.4778 4.29943 24.8373 4.90701 24.6731C5.38443 24.5441 5.70732 24.13 5.74469 23.6639L12.1745 21.9381C12.2567 22.178 12.3529 22.4114 12.4636 22.6365L2.26083 28.5328C1.89911 28.2213 1.36688 28.1545 0.929825 28.4064C0.376627 28.7251 0.186563 29.432 0.50533 29.9852C0.824097 30.5384 1.53098 30.7285 2.08418 30.4097C2.5065 30.1664 2.71626 29.6969 2.6505 29.2422L12.8684 23.3371C13.0095 23.5466 13.1646 23.7458 13.3304 23.9354L4.94277 32.33L5.51516 32.902L13.9028 24.5073C14.0925 24.6729 14.2918 24.8277 14.5015 24.9687L13.5316 26.6503C13.0783 26.5776 12.6069 26.7838 12.3639 27.2051C12.0494 27.7502 12.2364 28.4471 12.7815 28.7616C13.3267 29.0761 14.0236 28.8891 14.3381 28.344C14.5814 27.9222 14.5235 27.4104 14.2328 27.0543L15.2025 25.3732C15.4277 25.4837 15.6612 25.5796 15.9012 25.6616L13.9052 33.1236L14.6869 33.3327L16.6828 25.8708C16.9276 25.9186 17.1778 25.9508 17.4323 25.9677L17.4372 37.7535C16.9866 37.911 16.6626 38.3385 16.6622 38.8429C16.6616 39.4814 17.1788 39.9994 17.8173 40C18.4558 40.0005 18.9738 39.4834 18.9743 38.8449C18.9747 38.3575 18.6731 37.9412 18.2465 37.7708L18.2415 25.9674C18.496 25.9502 18.7463 25.9179 18.9911 25.8699L22.0669 37.3295L22.8483 37.1198L19.7725 25.6599C20.0125 25.5778 20.2458 25.4816 20.4709 25.3709L23.8101 31.1488C23.5329 31.5047 23.4825 32.0069 23.7227 32.4211C24.0386 32.9655 24.7359 33.1508 25.2803 32.8349C25.8247 32.5191 26.01 31.8218 25.6942 31.2774C25.446 30.8497 24.9624 30.6449 24.5025 30.7295L21.1716 24.966C21.3811 24.8249 21.5803 24.6698 21.7699 24.504L30.1647 32.8917L30.7366 32.3192L22.3418 23.9316C22.5074 23.7419 22.6622 23.5426 22.8031 23.333L24.4864 24.3039C24.4135 24.7574 24.6196 25.229 25.0411 25.4721C25.5862 25.7866 26.2831 25.5997 26.5976 25.0545C26.9121 24.5093 26.7251 23.8125 26.18 23.498C25.7584 23.2547 25.2468 23.3125 24.8907 23.6028L23.2076 22.632C23.3181 22.4068 23.414 22.1734 23.496 21.9333L34.9584 24.9995L35.1675 24.2177L23.7053 21.1516C23.7531 20.9068 23.7853 20.6566 23.8022 20.4021L35.6689 20.3971L35.6686 19.5879L23.8018 19.5929C23.7847 19.3384 23.7524 19.0882 23.7044 18.8435L33.9968 16.081Z" fill="#251D1D"/>
</svg>
